<svg xmlns="http://www.w3.org/2000/svg" xmlns:xlink="http://www.w3.org/1999/xlink" version="1.1" x="0px" y="0px" viewBox="0 0 100 125" enable-background="new 0 0 100 100" xml:space="preserve"><g><path d="M58.06,26.062c2.638,0,4.783-2.146,4.783-4.783c0-2.637-2.146-4.782-4.783-4.782c-2.637,0-4.782,2.146-4.782,4.782   C53.277,23.916,55.423,26.062,58.06,26.062z M58.06,19.33c1.074,0,1.949,0.874,1.949,1.948s-0.875,1.949-1.949,1.949   s-1.948-0.875-1.948-1.949S56.985,19.33,58.06,19.33z"/><path d="M41.136,15.832c3.048,0,5.526-2.479,5.526-5.526c0-3.047-2.479-5.526-5.526-5.526s-5.526,2.479-5.526,5.526   C35.609,13.354,38.088,15.832,41.136,15.832z M41.136,7.614c1.484,0,2.692,1.207,2.692,2.691s-1.208,2.691-2.692,2.691   s-2.692-1.207-2.692-2.691S39.651,7.614,41.136,7.614z"/><path d="M78.126,90.193c-0.729-0.278-1.55,0.089-1.828,0.82c-0.242,0.636-0.78,1.121-1.439,1.298   c-1.131,0.303-2.304-0.372-2.628-1.595l-0.004-0.015c-0.005-0.022-0.016-0.042-0.021-0.063l-1.275-4.762   c9.485-5.573,13.906-14.996,13.906-24.371c0-7.277-0.694-14.785-5.731-20.407c-0.67-0.747-0.91-1.659-0.696-2.64   c0.213-0.979,0.813-1.708,1.731-2.108c0.227-0.099,0.632-0.276,1.045-0.549c1.09-0.697,1.347-1.42,1.347-2.131   c0-0.316-0.055-0.636-0.206-0.954c-0.607-1.281-2.853-2.547-10.125-3.583c-3.899-0.556-8.646-0.942-13.811-1.146   c-2.703-0.106-5.515-0.166-8.39-0.166c-1.664,0-3.294,0.026-4.905,0.063c-0.979-1.444-2.679-2.404-4.61-2.404   c-2.12,0-3.961,1.156-4.875,2.842c-2.844,0.209-5.48,0.479-7.811,0.812c-9.079,1.294-10.33,2.945-10.33,4.537   c0,0.71,0.256,1.431,1.34,2.127c0.415,0.274,0.822,0.454,1.05,0.553c0.92,0.4,1.52,1.129,1.733,2.108   c0.214,0.98-0.027,1.894-0.696,2.64c-5.037,5.622-5.731,13.13-5.731,20.407c0,10.163,5.191,20.386,16.404,25.695l-0.921,3.438   c-0.006,0.021-0.017,0.041-0.021,0.063L30.6,90.807c-0.147,0.55-0.499,1.009-0.991,1.293c-0.493,0.282-1.064,0.36-1.614,0.212   c-0.659-0.177-1.197-0.662-1.439-1.298c-0.278-0.733-1.099-1.101-1.828-0.82c-0.731,0.278-1.1,1.097-0.82,1.828   c0.564,1.484,1.818,2.616,3.354,3.028c0.428,0.114,0.861,0.171,1.293,0.171c0.859,0,1.708-0.226,2.473-0.667   c1.114-0.643,1.911-1.674,2.271-2.902c0.01-0.029,0.029-0.052,0.037-0.081l0.871-3.253c4.438,1.661,9.687,2.617,15.796,2.617   c7.332,0,13.423-1.378,18.358-3.7l1.161,4.336c0.006,0.022,0.021,0.04,0.028,0.063c0.357,1.238,1.158,2.275,2.278,2.921   c0.765,0.441,1.613,0.667,2.474,0.667c0.431,0,0.865-0.057,1.293-0.171c1.535-0.412,2.789-1.544,3.354-3.028   C79.226,91.29,78.857,90.472,78.126,90.193z M50.774,36.093c0-1.288,1.048-2.336,2.336-2.336c1.287,0,2.335,1.048,2.335,2.336   c0,0.123-0.011,0.247-0.029,0.369c-0.008,0.053-0.006,0.104-0.009,0.155c-1.461,0.037-2.982,0.058-4.549,0.063   C50.809,36.488,50.774,36.293,50.774,36.093z M43.144,30.729c0,0.267-0.049,0.53-0.145,0.784c-0.277,0.731,0.092,1.55,0.824,1.826   c0.73,0.275,1.55-0.092,1.826-0.824c0.218-0.575,0.328-1.176,0.328-1.786c0-0.011-0.002-0.021-0.002-0.03   c1.306-0.026,2.637-0.044,4.024-0.044c4.237,0,8.102,0.123,11.559,0.325c-1.224,0.534-2.081,1.728-2.12,3.134   c-0.021,0.783,0.595,1.435,1.377,1.457c0.801-0.001,1.435-0.595,1.457-1.377c0.01-0.36,0.289-0.653,0.648-0.681   c0.253-0.017,0.429,0.096,0.512,0.167c0.082,0.07,0.223,0.227,0.244,0.499l0.001,0.035c0,0.783,0.634,1.417,1.417,1.417   s1.417-0.634,1.417-1.417c0-0.098-0.004-0.195-0.011-0.271c-0.071-0.942-0.507-1.801-1.224-2.416   c-0.146-0.125-0.303-0.227-0.463-0.324c7.602,0.603,12.7,1.6,14.438,2.467c-2.199,1.098-9.762,2.406-21.006,2.855   c0.012-0.145,0.033-0.288,0.033-0.434c0-2.851-2.318-5.17-5.169-5.17s-5.17,2.319-5.17,5.17c0,0.195,0.027,0.388,0.05,0.581   c-14.663-0.136-24.658-1.714-27.242-3.003c1.725-0.86,6.764-1.848,14.272-2.451c0.059,0.592,0.219,1.177,0.479,1.715   c0.244,0.505,0.75,0.8,1.276,0.8c0.207,0,0.418-0.046,0.617-0.143c0.704-0.341,0.999-1.188,0.657-1.894   c-0.148-0.308-0.225-0.633-0.225-0.969c0-1.331,1.192-2.415,2.658-2.415S43.144,29.398,43.144,30.729z M44.94,82.676   c-12.706,0-23.042-10.336-23.042-23.042c0-0.783,0.634-1.417,1.417-1.417s1.417,0.634,1.417,1.417   c0,11.143,9.065,20.208,20.208,20.208c0.783,0,1.417,0.634,1.417,1.417S45.724,82.676,44.94,82.676z"/></g><text x="0" y="115" fill="#000000" font-size="5px" font-weight="bold" font-family="'Helvetica Neue', Helvetica, Arial-Unicode, Arial, Sans-serif">Created by Nikita Kozin</text><text x="0" y="120" fill="#000000" font-size="5px" font-weight="bold" font-family="'Helvetica Neue', Helvetica, Arial-Unicode, Arial, Sans-serif">from the Noun Project</text></svg>