<svg xmlns="http://www.w3.org/2000/svg" xmlns:xlink="http://www.w3.org/1999/xlink" version="1.1" x="0px" y="0px" viewBox="0 0 28 44" style="enable-background:new 0 0 28 44;" xml:space="preserve"><g><path d="M20.9,18.9c-0.3-1.3-1.3-2.3-2.6-2.9c-0.1,0-0.1,0-0.2-0.1l0.5-2.1c0-0.1,0-0.2,0-0.3c0-0.4-0.4-0.7-0.9-0.9   c0.3-0.5,0.4-1,0.4-1.7c0-2.3-3.5-5.3-3.9-5.6L14,5l-0.3,0.3c-0.4,0.3-3.9,3.4-3.9,5.6c0,0.7,0.1,1.2,0.4,1.7   c-0.5,0.2-0.9,0.5-0.9,0.9c0,0.1,0,0.2,0,0.3l0.5,2.1c-0.1,0-0.1,0-0.2,0c-1.3,0.5-2.3,1.6-2.6,2.9C6.9,20,7,21.2,7.5,22.7   c0.3,0.7,0.6,1.4,0.9,2.1c0.2,0.4,0.4,0.8,0.6,1.2c1.2,2.6,1.5,8.1,1.5,9.4c-0.9,0.6-1.7,1.5-1.7,2.1c0,0.2,0.1,0.4,0.3,0.4   c0.1,0,2.2,1.1,4.9,1.1c2.7,0,4.8-1,4.9-1.1c0.2-0.1,0.3-0.2,0.3-0.4c0-0.6-0.8-1.5-1.7-2.1c0.1-1.3,0.3-6.8,1.5-9.4   c0.2-0.4,0.4-0.8,0.6-1.2c0.3-0.7,0.7-1.4,0.9-2.1C21,21.2,21.1,20,20.9,18.9z M16.8,12.4c-0.2,0-0.5-0.1-0.7-0.1   c0.4-0.7,0.7-1.4,0.9-2.3c0.2,0.4,0.3,0.7,0.3,1C17.3,11.5,17.1,12,16.8,12.4z M15.4,7.7C15.7,8,16,8.4,16.2,8.7   c-0.1,1.3-0.5,2.6-1.2,3.5c-0.4,0-0.8,0-1,0c-0.2,0-0.4,0-0.6,0C14.4,11.1,15.2,9.5,15.4,7.7z M14,6.3c0.1,0.1,0.3,0.3,0.5,0.4   c-0.1,2.7-1.5,4.9-3.3,5.6c-0.2-0.3-0.3-0.5-0.4-0.9c1.5-0.7,2.6-2.5,2.7-4.7C13.7,6.6,13.9,6.4,14,6.3z M10.8,10.3   c0.2-0.8,0.9-1.6,1.6-2.4C12.1,8.9,11.5,9.8,10.8,10.3z M19.6,22.3c-0.3,0.7-0.6,1.4-0.9,2c-0.2,0.4-0.4,0.8-0.6,1.2   c-1.4,3.1-1.6,9.7-1.6,10c0,0.2,0.1,0.3,0.2,0.4c0.7,0.4,1.1,0.9,1.3,1.2c-0.7,0.3-2.3,0.8-4,0.8c-1.8,0-3.3-0.5-4-0.8   c0.2-0.3,0.7-0.8,1.3-1.2c0.1-0.1,0.2-0.2,0.2-0.4c0-0.3-0.2-6.9-1.6-10c-0.2-0.4-0.4-0.8-0.6-1.2c-0.3-0.7-0.7-1.3-0.9-2   C7.9,21.1,7.8,20,8,19.1c0.2-1,1-1.8,2-2.2c0.1,0,0.3-0.1,0.5-0.1c0.1,0,0.2-0.1,0.3-0.2c0.1-0.1,0.1-0.2,0.1-0.4l-0.6-2.5   c0.3-0.2,1.6-0.6,3.7-0.6c2.1,0,3.4,0.3,3.7,0.6l-0.6,2.5c0,0.1,0,0.3,0.1,0.4c0.1,0.1,0.2,0.2,0.3,0.2c0.2,0.1,0.4,0.1,0.5,0.1   c1,0.4,1.8,1.2,2,2.2C20.2,20,20.1,21.1,19.6,22.3z"></path><path d="M10.6,23.9c-0.4-0.1-1-0.3-1-0.2c0,0.1,0,0.2,0.1,0.3c0.1,0.2,0.9,2.2,1,2.6c1.1,2.9,1.3,9.4,1.3,9.4   c0.3,0.2,1.1,0.5,2,0.5c1,0,1.8-0.3,2-0.5c0,0,0.2-6.5,1.3-9.4c0.1-0.2,0.7-1.9,1-2.6c0.1-0.2,0.4-1.3,0.5-1.6   c-0.6-0.2-1.6-0.3-2.3-0.3C14.9,22,13.2,24.4,10.6,23.9z"></path><ellipse cx="12.4" cy="21.4" rx="1.2" ry="1.3"></ellipse><ellipse cx="14.7" cy="18.4" rx="0.5" ry="0.5"></ellipse><ellipse cx="13.3" cy="14.7" rx="1" ry="1"></ellipse></g></svg>