<svg xmlns="http://www.w3.org/2000/svg" xmlns:xlink="http://www.w3.org/1999/xlink" version="1.1" x="0px" y="0px" viewBox="0 0 34 46" style="enable-background:new 0 0 34 46;" xml:space="preserve"><title>Fichier 2</title><g><path d="M12.2,17.4c-0.1,0.1-0.2,0.2-0.2,0.3v10.5c-0.7,0.2-1.5,0.4-2.4,0.3c-0.7-0.1-1.2-0.3-1.4-0.4c0,0,0,0,0,0   c0.2,4,2.4,8.8,5.1,8.8c2.3,0,4-3.4,4.8-6.9c0.1-0.6,0.2-1.3,0.2-1.9c-0.3-0.4-1.8-0.8-3.4-0.8c-0.2,0-0.5,0.1-0.8,0.1v-9.7   c0-0.1,0-0.2-0.1-0.3c-0.1,0-0.5-0.3-0.9-0.3S12.3,17.4,12.2,17.4z M13.5,17.9v3.8c-0.3,0-0.5,0.3-0.5,0.6c0,0.3,0.2,0.5,0.5,0.6   v1.6c-0.1,0-0.1,0.1-0.1,0.2c0,0.1,0.1,0.1,0.1,0.2v2.5c-0.3,0-0.5,0.3-0.5,0.6c0,0,0,0.1,0,0.1c-0.1,0-0.2,0.1-0.3,0.1V26   c0.2-0.1,0.5-0.3,0.5-0.7s-0.2-0.6-0.5-0.7v-4.2c0.2-0.1,0.5-0.3,0.5-0.7c0-0.3-0.2-0.6-0.5-0.7v-1.3c0-0.1,0.2-0.1,0.4-0.1   C13.2,17.8,13.5,17.8,13.5,17.9z"></path><path d="M29.9,20.4c-0.8-0.4-1.4-1-1.8-1.6c0.3-1,0.2-2-0.3-2.9c0-0.1,0.1-0.1,0.1-0.2c0-0.1,0.1-0.2,0.2-0.2   c0.2-0.3,0.4-0.6,0.5-1c0.1-0.4-0.2-0.9-0.8-1.2c0-0.1,0-0.1,0-0.2c0-0.6-0.5-1-1-1c-0.2,0-0.4,0.1-0.6,0.2   c-0.5-1.3-2.2-2.2-4.2-2.2c-2.1,0-3.9,1-4.3,2.4h-1.7c-0.3-1.2-1.4-2.1-2.6-2.1c-1.3,0-2.3,0.9-2.6,2.1H9.8   c-0.1-0.5-0.3-1.2-0.9-1.2c-0.6,0-1,0.7-1,1.9c0,1,0.3,2.1,1,2.1c0.5,0,0.7-0.3,0.9-1.1h1c0.2,0.7,0.7,1.2,1.5,1.5V16   c-1.2,0.2-2,0.8-2,1.6c0,0.5,0.3,1,0.8,1.2v1.9c-1.5,0.4-4,1.9-4,6.3c0,3.4,1.4,7.5,3.3,9.6c-1.1,0.6-1.7,1.8-1.7,3.2v0.6h9.7v-0.6   c0-1.4-1-2.6-2-3.2C17,36,17.5,35,18,33.9c0,0.5,0.2,1,0.4,1.4c0.4,0.7,1.2,1.1,2,1.1c0.2,0,0.3,0,0.5-0.1c0.5-0.1,0.9-0.5,1.2-1.1   c0.2-0.5,0.2-1,0-1.4c-0.1-0.2-0.3-0.2-0.5-0.1c-0.2,0.1-0.2,0.3-0.1,0.5c0.2,0.3,0.1,0.6,0,0.8c-0.1,0.3-0.4,0.6-0.7,0.7   c-0.6,0.2-1.3-0.2-1.7-0.8c-0.3-0.6-0.4-1.3-0.3-2.1c0.3-1.1,0.9-2.1,1.8-3.2c0.1-0.1,0.2-0.3,0.3-0.4c0.7-0.9,1.5-1.8,2-2.8   c0.5-1.1,0.7-2.8-0.1-4c-0.4-0.7-1.2-1.1-2.1-1.2c-0.7-0.1-1.3,0.2-1.8,0.7c-0.3,0.3-0.5,0.7-0.5,1.2c-0.7-1.1-1.7-1.9-3.2-2.2v-2   c0.5-0.3,0.8-0.7,0.8-1.2c0-0.7-0.6-1.3-1.6-1.5v-0.4c0.5-0.2,1.2-0.7,1.5-1.4h1.9c0.6,1.2,2.2,2,4.1,2c2,0,3.7-0.9,4.2-2.2   c0,0,0,0,0,0c0,0.2-0.1,0.4,0,0.5c0.1,0.4,0.3,0.7,0.5,0.9c-0.1,0.2-0.1,0.3-0.2,0.5c0,0,0,0,0,0c-0.1,0.1-0.1,0.2-0.2,0.2   c-0.1,0.1-0.2,0.2-0.3,0.3c-1.8,2.5-1.7,6.1,0.2,8.7c0.1,0.1,0.2,0.1,0.3,0.1c0.1,0,0.1,0,0.2-0.1c0.1-0.1,0.2-0.3,0.1-0.5   c-0.7-0.9-1.1-2-1.3-3.1c0,0,0.1,0,0.2,0c0.1,0,0.1,0,0.2-0.1c0.1-0.1,0.2-0.2,0.3-0.3c0.4,1.6,1.3,3,2.5,4.1   c0.1,0.1,0.1,0.1,0.2,0.1c0.1,0,0.2,0,0.3-0.1c0.1-0.1,0.1-0.4,0-0.5c-1.2-1.1-2-2.5-2.3-4.1c0.4-0.4,0.8-0.9,1-1.4   c0.5,0.5,1.1,1,1.8,1.4c0.1,0,0.1,0,0.2,0c0.1,0,0.2-0.1,0.3-0.2C30.1,20.7,30,20.5,29.9,20.4z M9.5,13.5c-0.1,0-0.2,0.1-0.3,0.2   c0,0,0,0.1-0.1,0.2c0,0.1-0.2,0.5-0.3,0.6c-0.1-0.1-0.3-0.6-0.3-1.4c0-0.8,0.3-1.3,0.4-1.3c0,0,0.2,0.1,0.3,0.9   C9.2,13,9.3,13,9.5,13h1.1c0,0.1,0,0.1,0,0.2c0,0.1,0,0.2,0,0.3H9.5z M27.5,17.9C27.5,17.9,27.5,17.8,27.5,17.9   c-0.1-0.3-0.1-0.6-0.1-0.9C27.5,17.3,27.5,17.6,27.5,17.9z M26.8,14.2C26.8,14.2,26.8,14.2,26.8,14.2c0,0.1,0.1,0.2,0.1,0.4   c0,0-0.1-0.1-0.1-0.1C26.8,14.4,26.8,14.3,26.8,14.2z M21.9,15.6c-0.3,0-0.5-0.3-0.7-0.8c0.2,0,0.5,0,0.7,0s0.5,0,0.7,0   C22.5,15.3,22.2,15.6,21.9,15.6z M21.9,14.1c-0.3,0-0.6,0-0.9,0c0-0.3-0.1-0.6-0.1-0.9c0-0.3,0-0.6,0.1-0.9c0.3,0,0.6,0,0.9,0   s0.6,0,0.9,0c0,0.3,0.1,0.6,0.1,0.9c0,0.3,0,0.6-0.1,0.9C22.6,14.1,22.3,14.1,21.9,14.1z M18.2,13.2c0-0.2,0.7-0.6,2.1-0.8   c0,0.3-0.1,0.5-0.1,0.8s0,0.5,0.1,0.8C18.9,13.8,18.2,13.4,18.2,13.2z M21.9,10.8c0.3,0,0.5,0.3,0.7,0.8c-0.2,0-0.5,0-0.7,0   s-0.5,0-0.7,0C21.4,11.1,21.7,10.8,21.9,10.8z M23.6,12.4c1.4,0.2,2.1,0.6,2.1,0.8c0,0,0,0,0,0s0,0,0,0c0,0.2-0.7,0.6-2.1,0.8   c0-0.3,0.1-0.5,0.1-0.8S23.6,12.6,23.6,12.4z M27.7,14.7c0-0.2-0.1-0.5-0.2-0.7c0.2,0.1,0.3,0.3,0.3,0.4   C27.8,14.6,27.7,14.7,27.7,14.7z M25.2,12.1c-0.5-0.2-1.1-0.3-1.8-0.4c-0.1-0.3-0.2-0.5-0.3-0.8C24,11.1,24.8,11.5,25.2,12.1z    M20.8,10.9c-0.1,0.2-0.2,0.5-0.3,0.8c-0.7,0.1-1.3,0.2-1.8,0.4C19.1,11.5,19.8,11.1,20.8,10.9z M20.3,24.8c-0.5-0.1-1-0.4-1.2-0.9   c-0.2-0.5-0.1-1.1,0.3-1.5c0.3-0.3,0.7-0.5,1.2-0.4c0.6,0,1.2,0.4,1.6,0.9c0.7,1,0.5,2.4,0.1,3.4c-0.4,1-1.2,1.8-1.9,2.7   c-0.1,0.1-0.2,0.3-0.3,0.4c-0.4,0.5-0.8,1-1.1,1.5c0.2-1.2,0.4-2.4,0.4-3.5c0-0.8-0.1-1.5-0.2-2.2c0.3,0.3,0.7,0.5,1.1,0.5   c0.2,0,0.4-0.1,0.4-0.3C20.6,25,20.5,24.8,20.3,24.8z M15.4,17.7c0,0.1,0,0.4-0.7,0.7l-0.2,0.1v2.9l0.3,0c2.6,0.5,3.9,2.5,3.9,5.7   c0,3.5-1.4,7.6-3.1,9.5l-0.3,0.3l0.4,0.2c1,0.4,1.9,1.4,1.9,2.7H9.2c0-1,0.7-2.2,1.7-2.7l0.4-0.1l-0.3-0.3c-1.9-2-3.3-6-3.3-9.5   c0-4,2.1-5.3,3.8-5.7l0.2-0.1v-2.9l-0.1-0.1c-0.4-0.3-0.7-0.5-0.7-0.8c0-0.5,0.9-1,2.2-1C14.5,16.6,15.4,17.2,15.4,17.7z M14,15.2   c-0.1,0.1-0.2,0.2-0.2,0.3V16c-0.2,0-0.4,0-0.6,0c-0.1,0-0.3,0-0.4,0v-0.5c0-0.2,0-0.3-0.1-0.3c-0.9-0.2-1.3-1-1.3-2   c0-1.1,0.9-2.1,2-2.1c0.9,0,1.6,0.6,1.9,1.4h0c-0.3,0-0.7,0.2-0.7,0.9c0,0.6,0.3,0.8,0.6,0.9C14.8,14.7,14.2,15.1,14,15.2z    M15.2,13.5c0,0,0-0.1,0-0.2c0-0.1,0-0.2,0-0.2h2.3c0,0.1,0,0.1,0,0.2c0,0.1,0,0.2,0,0.3H15.2z M18.6,14.3c0.5,0.2,1.1,0.3,1.8,0.4   c0.1,0.3,0.2,0.5,0.3,0.8C19.8,15.3,19.1,14.8,18.6,14.3z M23.1,15.5c0.1-0.2,0.2-0.5,0.3-0.8c0.7-0.1,1.3-0.2,1.8-0.4   C24.8,14.8,24,15.3,23.1,15.5z M25.5,21.3C25.5,21.3,25.5,21.3,25.5,21.3c-0.1-1,0.1-2,0.4-2.9c-0.1,0.8-0.1,1.6,0.1,2.5   C25.8,21,25.7,21.1,25.5,21.3z M26.6,20.2c-0.1-0.9,0-1.8,0.2-2.7c0,0.2,0,0.4,0.1,0.5c0.1,0.3,0.2,0.7,0.4,1   C27.1,19.4,26.9,19.8,26.6,20.2z"></path><circle cx="6.3" cy="12.3" r="1"></circle><circle cx="4.5" cy="10" r="0.5"></circle><circle cx="5.6" cy="7" r="1.5"></circle><ellipse cx="13.1" cy="23.7" rx="0.2" ry="0.2"></ellipse><ellipse cx="13.2" cy="20.9" rx="0.2" ry="0.2"></ellipse><ellipse cx="13.2" cy="18.3" rx="0.2" ry="0.2"></ellipse><ellipse cx="13.2" cy="26.4" rx="0.2" ry="0.2"></ellipse></g></svg>