<svg xmlns="http://www.w3.org/2000/svg" xmlns:xlink="http://www.w3.org/1999/xlink" version="1.1" x="0px" y="0px" viewBox="0 0 100 125" enable-background="new 0 0 100 100" xml:space="preserve"><g><path d="M83.009,35.838c-6.477-6.477-15.088-10.043-24.247-10.043c-4.71,0-9.448,0.989-13.748,2.866l-9.003-8.964l0.921-0.921   c0.661-0.661,1.025-1.54,1.025-2.475c0-0.935-0.364-1.814-1.025-2.475c-1.321-1.322-3.628-1.322-4.949,0l-19.52,19.52   c-1.365,1.365-1.365,3.585,0,4.95c1.322,1.321,3.627,1.322,4.95,0l0.921-0.921l9.003,8.963   c-5.619,12.856-2.778,28.042,7.176,37.996C40.989,90.81,49.6,94.376,58.76,94.377c0.001,0,0.001,0,0.003,0   c9.158,0,17.769-3.567,24.246-10.044C96.378,70.963,96.379,49.208,83.009,35.838z M81.594,82.919   c-6.1,6.1-14.208,9.458-22.832,9.458c0,0-0.002,0-0.003,0c-8.626-0.001-16.735-3.359-22.833-9.457   c-9.529-9.53-12.137-24.15-6.488-36.381c0.176-0.38,0.096-0.83-0.201-1.126L19.041,35.254c-0.195-0.195-0.451-0.293-0.707-0.293   s-0.512,0.098-0.707,0.293l-1.628,1.627c-0.566,0.568-1.555,0.566-2.122,0c-0.585-0.585-0.585-1.537,0-2.122l19.52-19.52   c0.566-0.566,1.555-0.566,2.121,0c0.283,0.284,0.439,0.66,0.439,1.061c0,0.4-0.156,0.777-0.439,1.061L33.89,18.99   c-0.391,0.391-0.391,1.023,0,1.414l10.198,10.159c0.296,0.297,0.745,0.376,1.126,0.201c4.206-1.942,8.891-2.969,13.548-2.969   c8.625,0,16.734,3.358,22.833,9.457C94.185,49.842,94.185,70.328,81.594,82.919z"/><path d="M27.935,15.108l-3.963-4.995c-1.26-1.26-3.257-1.306-4.461-0.103L8.646,20.875c-1.204,1.204-1.158,3.201,0.103,4.461   l4.995,3.963L27.935,15.108z"/><path d="M86.588,53.237c-0.09-0.359-0.373-0.639-0.732-0.727c-0.359-0.091-0.74,0.029-0.985,0.308   c-0.051,0.057-5.135,5.663-13.354,5.663c-4.05,0-7.866-2.299-11.905-4.732c-4.299-2.59-8.744-5.268-13.802-5.268   c-9.865,0-15.286,8.84-15.286,11.77c0,15.766,12.826,28.592,28.591,28.592s28.591-12.826,28.591-28.592   C87.705,57.708,86.634,53.419,86.588,53.237z"/></g><text x="0" y="115" fill="#000000" font-size="5px" font-weight="bold" font-family="'Helvetica Neue', Helvetica, Arial-Unicode, Arial, Sans-serif">Created by mungang kim</text><text x="0" y="120" fill="#000000" font-size="5px" font-weight="bold" font-family="'Helvetica Neue', Helvetica, Arial-Unicode, Arial, Sans-serif">from the Noun Project</text></svg>